# xmcd
#
# Track frame offsets:
#	150
#	14909
#	29937
#	46721
#	66940
#	88664
#	105847
#	119572
#	131722
#	144963
#	162162
#	183455
#	198638
#	222268
#
# Disc length: 3175 seconds
#
# Revision: 1
# Processed by: cddbd v1.5.2PL0 Copyright (c) Steve Scherf et al.
# Submitted via: audiograbber 1.83.01
#
DISCID=d10c650e
DTITLE=Various Artist - Blue Highways - The Ultimate Americana Musicfest 2008
DYEAR=2008
DGENRE=Americana
TTITLE0=Greg Brown - Evening Call
TTITLE1=Sam Baker - Orphan
TTITLE2=Jason Isbell - Grown
TTITLE3=Stephen Simmons - Shirley's Stables
TTITLE4=Malcolm Holcombe - Goin' Home
TTITLE5=Chris Smither - Leave The Light On
TTITLE6=AJ Roach - Devil May Dance
TTITLE7=Michael Fracasso - Texas Lost Highway
TTITLE8=Eilen Jewell - Rich Man's World
TTITLE9=Kendel Carson - There's No Angel On My Shoulder
TTITLE10=J.B. Beverley and The Wayward Drifters - Train Song
TTITLE11=Dayna Kurtz - It's The Day Of Atonement, 2001
TTITLE12=Ollabellle - Soul Of A Man
TTITLE13=Kris Delmhorst - Strange Conversation
EXTD=
EXTT0=
EXTT1=
EXTT2=
EXTT3=
EXTT4=
EXTT5=
EXTT6=
EXTT7=
EXTT8=
EXTT9=
EXTT10=
EXTT11=
EXTT12=
EXTT13=
PLAYORDER=
